# xmcd
#
# Track frame offsets:
#	150
#	13844
#	35943
#	50609
#	67307
#	92932
#	108604
#	125596
#	141276
#	161355
#	179557
#	194306
#	210431
#	228872
#
# Disc length: 3267 seconds
#
# Revision: 1
# Processed by: cddbd v1.5.2PL0 Copyright (c) Steve Scherf et al.
# Submitted via: EZCDAudioConverter 1.1.0.1
#
DISCID=d50cc10e
DTITLE=Various Artist - High Cotton: A Tribute To Alabama
DYEAR=2013
DGENRE=Country
TTITLE0=JD Mcpherson - Why Lady Why
TTITLE1=Old Crow Medicine Show - Dixieland Delight
TTITLE2=Turnpike Troubadours - If You're Gonna Play In Texas (You Gotta Have A
TTITLE2=Fiddle In The Band)
TTITLE3=Jason Isbell and John Paul White - Old Flame
TTITLE4=T. Hardy Morris - High Cotton
TTITLE5=Amanda Shires - I Can't Love You Any Less
TTITLE6=Jessica Lea Mayfield - I'm In A Hurry (And Don't Know Why)
TTITLE7=Bob Scheider and Texas Bluegrass Massacre W/ Ray Benson - Lady Down On L
TTITLE7=ove
TTITLE8=Shonna Tucker And Eye Candy - Roll On (Eighteen Wheeler)
TTITLE9=Lucero - The Closer You Get
TTITLE10=Todd Snider and Elizabeth Cook - Feels So Right
TTITLE11=Wade Brown and Brandy Clark - Love In The First Degree
TTITLE12=Jason Boland and The Stragglers - Mountain Music
TTITLE13=Blind Boys Of Alabama - Christmas In Dixie
EXTD=
EXTT0=
EXTT1=
EXTT2=
EXTT3=
EXTT4=
EXTT5=
EXTT6=
EXTT7=
EXTT8=
EXTT9=
EXTT10=
EXTT11=
EXTT12=
EXTT13=
PLAYORDER=
